<?xml version="1.0" encoding="utf-8"?>
<!-- Generator: Adobe Illustrator 16.0.0, SVG Export Plug-In . SVG Version: 6.00 Build 0)  -->
<!DOCTYPE svg PUBLIC "-//W3C//DTD SVG 1.1//EN" "http://www.w3.org/Graphics/SVG/1.1/DTD/svg11.dtd">
<svg version="1.1" id="Layer_1" xmlns="http://www.w3.org/2000/svg" xmlns:xlink="http://www.w3.org/1999/xlink" x="0px" y="0px"
	 width="821.56px" height="853.633px" viewBox="0 0 821.56 853.633" enable-background="new 0 0 821.56 853.633"
	 xml:space="preserve">
<g>
	<polygon fill="#F15A22" points="53.694,237.362 50.456,322.146 93.254,432.782 182.905,514.344 257.193,544.221 323.408,567.647 
		411.429,574.114 500.269,563.6 599.588,530.504 673.082,486.895 718.296,433.61 761.111,359.289 771.608,291.476 749.768,196.17 
		710.217,139.657 652.089,82.305 575.368,43.557 500.269,22.556 435.651,12.861 361.364,12.861 308.069,22.556 227.309,50.825 
		162.716,84.731 113.444,129.152 82.774,169.549 	"/>
	<polygon fill="#FFF200" points="150.597,270.466 148.171,308.403 161.102,353.117 190.173,398.866 237.012,438.729 
		283.857,466.713 345.213,484.461 399.051,491.461 451.292,488.225 519.122,472.618 590.698,435.458 626.78,405.314 
		662.309,348.266 672.53,295.498 663.916,243.828 635.93,191.06 593.409,153.382 533.124,119.476 473.89,103.851 418.973,96.298 
		374.83,98.456 317.211,110.852 270.935,126.994 224.088,153.917 191.789,184.076 162.725,227.142 	"/>
	<polygon fill="#FFFFFF" points="242.389,274.506 242.932,307.35 273.076,362.258 316.693,391.34 363.538,408.56 410.894,415.561 
		464.741,407.481 519.122,384.321 554.116,352.029 573.487,320.272 578.302,280.427 565.423,244.916 538.493,212.614 
		502.963,188.911 449.133,170.067 399.603,166.295 344.695,177.059 304.841,194.85 266.627,224.992 	"/>
	<polygon fill="#FFFFFF" points="320.992,223.361 314.517,242.205 317.228,265.346 326.369,278.286 341.44,268.584 347.363,250.819 
		345.23,231.441 339.309,221.203 329.071,219.045 	"/>
	<polygon fill="#FFFFFF" points="478.189,226.598 474.961,249.205 478.189,277.208 496.49,282.585 507.26,262.679 508.884,238.977 
		500.269,223.361 492.19,219.053 	"/>
	<polygon fill="#8BC751" points="799.056,612.059 708.611,570.885 600.418,569.262 526.924,608.823 467.952,712.985 
		454.245,714.012 454.245,573.311 360.561,573.311 360.561,710.93 339.559,683.938 288.682,607.217 221.664,574.899 
		148.179,570.075 81.144,584.61 27.047,607.217 13.33,631.456 41.575,716.239 105.374,782.463 190.994,809.895 280.62,813.961 
		360.561,807.901 360.561,830.086 454.245,830.086 454.245,808.885 467.157,809.118 596.36,813.961 716.69,773.573 778.876,708.159 
		803.909,634.692 	"/>
	<path d="M410.772,90.333c-148.505,0-269.317,91.206-269.317,203.318c0,112.121,120.812,203.318,269.317,203.318
		c148.522,0,269.336-91.197,269.336-203.318C680.109,181.539,559.294,90.333,410.772,90.333 M410.772,480.819
		c-139.595,0-253.175-83.956-253.175-187.167c0-103.187,113.58-187.176,253.175-187.176c139.615,0,253.177,83.989,253.177,187.176
		C663.95,396.863,550.387,480.819,410.772,480.819 M410.772,160.995c-97.031,0-175.962,58.516-175.962,130.463
		c0,71.94,78.931,130.473,175.962,130.473c97.042,0,175.972-58.533,175.972-130.473
		C586.745,219.511,507.814,160.995,410.772,160.995 M410.772,405.79c-88.115,0-159.803-51.308-159.803-114.332
		c0-63.039,71.688-114.321,159.803-114.321c88.116,0,159.83,51.282,159.83,114.321C570.602,354.481,498.888,405.79,410.772,405.79
		 M815.354,609.124c-0.966-0.793-101.305-76.9-216.076-49.393c-67.984,16.281-109.781,66.855-124.904,105.225
		c0,0-2.02,5.438-3.902,10.514v-91.645h-1.604c180.252-21.814,318.659-143.619,318.659-290.173C787.526,131.724,618.528,0,410.772,0
		C203.044,0,34.021,131.724,34.021,293.651c0,146.554,138.422,268.359,318.685,290.173H351.1v91.645
		c-1.925-5.18-3.911-10.514-3.911-10.514c-15.132-38.369-56.919-88.943-124.896-105.225C105.71,531.782,7.184,608.331,6.208,609.124
		c-4.323,3.393-6.628,8.701-6.145,14.174c5.533,63.662,31.144,112.459,78.31,149.119c86.958,67.639,218.311,56.807,272.727,48.58
		v1.613h0.052l-0.052,0.562c0,22.484,30.825,30.461,59.672,30.461c28.849,0,59.699-7.977,59.699-30.279l-0.068-0.744h0.068v-1.613
		c54.4,8.227,185.761,19.059,272.721-48.58c47.147-36.66,72.767-85.457,78.309-149.119
		C821.965,617.825,819.67,612.516,815.354,609.124 M133.073,659.811c37.584,13.553,125.113,45.197,209.576,134.582
		c-51.075,4.436-169.8,7.268-244.312-50.74C58.934,713,36.87,674.659,30.836,626.551c9.193-6.094,93.397-59.715,183.852-38.041
		c78.655,18.861,126.001,114.607,134.78,176.629c-95.055-101.617-206.287-121.557-229.637-118.008
		c-2.736,0.404-4.299,1.182-4.876,2.424l-0.182,0.951C114.773,653.217,119.729,654.995,133.073,659.811 M437.844,817.165
		c-5.094,1.891-14.469,3.832-27.072,3.832c-12.585,0-21.959-1.941-27.036-3.832V586.551c8.926,0.51,17.938,0.777,27.036,0.777
		c9.117,0,18.111-0.268,27.072-0.777V817.165z M410.772,555.028c-189.912,0-344.433-117.223-344.433-261.376
		c0-144.093,154.521-261.333,344.433-261.333c189.921,0,344.452,117.24,344.452,261.333
		C755.224,437.805,600.694,555.028,410.772,555.028 M723.216,743.653c-74.512,58.008-193.253,55.176-244.302,50.74
		c84.471-89.385,172-121.029,209.566-134.582c13.397-4.834,18.353-6.611,18.353-9.236l-0.174-0.863
		c-0.638-1.398-2.191-2.176-4.938-2.58c-23.341-3.549-134.571,16.391-229.645,118.008c8.788-62.021,56.125-157.768,134.798-176.629
		c90.445-21.674,174.641,31.947,183.844,38.041C784.677,674.659,762.63,713,723.216,743.653 M330.081,214.79
		c-20.276,1.7-23.021,32.3-23.021,61.986c0,32.422,1.752,64.119,22.582,64.325c4.358,0.035,8.131-1.467,11.17-4.487
		c9.832-9.737,11.169-33.891,11.169-58.535c0-27.156,0-50.487-9.789-59.5C339.007,215.678,334.941,214.384,330.081,214.79
		 M338.566,258.208c-1.89,4.438-4.722,6.052-7.924,6.052c-3.159-0.018-6.043-1.632-7.915-6.018
		c-1.468-3.443-2.279-9.063-2.262-13.871c0.017-4.869,0.76-9.919,2.262-13.389c1.907-4.35,4.911-6.447,8.062-6.447
		c3.125,0,6.06,1.743,7.916,6.024c1.52,3.462,2.305,8.943,2.279,13.863C340.967,249.214,340.034,254.799,338.566,258.208
		 M491.481,214.79c-4.867-0.406-8.941,0.889-12.1,3.789c-9.808,9.013-9.808,32.344-9.808,59.362
		c0,24.782,1.349,48.936,11.171,58.673c3.057,3.021,6.819,4.522,11.188,4.487c20.803-0.206,22.545-31.903,22.545-64.325
		C514.477,247.09,511.75,216.489,491.481,214.79 M498.821,258.242c-1.865,4.386-4.732,6-7.909,6.018
		c-3.21,0-6.007-1.614-7.905-6.052c-1.484-3.409-2.418-8.994-2.434-13.785c-0.018-4.92,0.759-10.401,2.278-13.863
		c1.88-4.281,4.78-6.024,7.89-6.024c3.193,0,6.197,2.097,8.08,6.447c1.519,3.47,2.26,8.521,2.295,13.389
		C501.116,249.179,500.287,254.799,498.821,258.242"/>
</g>
</svg>
